<svg width="24" height="24" viewBox="0 0 24 24" fill="none" xmlns="http://www.w3.org/2000/svg">
<path d="M14.0062 22.7812H9.99836C9.99367 22.7812 9.98898 22.7812 9.9843 22.7812C9.3843 22.7719 8.88273 22.3547 8.76086 21.7687C8.75617 21.7547 8.75617 21.7359 8.75148 21.7219L8.43742 19.4813H8.43273C8.04836 19.2938 7.67336 19.0781 7.3218 18.8297L5.21711 19.6781C5.21242 19.6781 5.20773 19.6828 5.20305 19.6828C4.63117 19.8984 3.98898 19.6781 3.67492 19.1484C3.67492 19.1437 3.67023 19.1437 3.67023 19.1391L1.66398 15.6703C1.35461 15.1406 1.47648 14.4656 1.94992 14.0719C1.95461 14.0672 1.9593 14.0625 1.96398 14.0578L3.75461 12.6516L3.74992 12.6469C3.73117 12.4125 3.7218 12.2016 3.7218 11.9953C3.7218 11.7844 3.73117 11.5734 3.74992 11.3484L1.96867 9.95156C1.9593 9.94688 1.95461 9.94219 1.94992 9.93281C1.48586 9.53906 1.36867 8.86875 1.67336 8.34375L3.67961 4.875C3.67961 4.87031 3.6843 4.87031 3.6843 4.86563C3.99836 4.34063 4.64055 4.11563 5.21242 4.33125C5.21711 4.33125 5.2218 4.33594 5.22648 4.33594L7.33117 5.18437C7.68742 4.94062 8.05773 4.725 8.44211 4.5375L8.75617 2.29219C8.75617 2.28281 8.76086 2.27344 8.76086 2.26875C8.8593 1.67344 9.37492 1.23281 9.97961 1.21875C9.9843 1.21875 9.98898 1.21875 9.99367 1.21875H14.0015C14.0062 1.21875 14.0109 1.21875 14.0155 1.21875C14.6155 1.22813 15.1171 1.64531 15.239 2.23125C15.2437 2.24531 15.2437 2.26406 15.2484 2.27812L15.5624 4.51875H15.5671C15.9515 4.70625 16.3265 4.92188 16.678 5.17031L18.7827 4.32187C18.7874 4.32187 18.7921 4.31719 18.7968 4.31719C19.3687 4.09687 20.0109 4.32188 20.3249 4.85156C20.3249 4.85625 20.3296 4.85625 20.3296 4.86094L22.3359 8.32969C22.6452 8.85938 22.5234 9.53438 22.0499 9.92813C22.0452 9.93281 22.0405 9.9375 22.0359 9.94219L20.2452 11.3484C20.2452 11.3531 20.2452 11.3578 20.2452 11.3578C20.264 11.5969 20.2734 11.8078 20.2734 12V12.0047C20.2734 12.2156 20.264 12.4313 20.2452 12.6422L22.0359 14.0438C22.0405 14.0484 22.0452 14.0531 22.0499 14.0578C22.5234 14.4516 22.6452 15.1219 22.3359 15.6562L20.3296 19.125C20.3296 19.1297 20.3249 19.1297 20.3249 19.1344C20.0109 19.6594 19.3687 19.8844 18.7968 19.6688C18.7921 19.6688 18.7874 19.6641 18.7827 19.6641L16.678 18.8156C16.3218 19.0594 15.9515 19.275 15.5671 19.4625L15.253 21.7078C15.253 21.7172 15.2484 21.7266 15.2484 21.7313C15.1452 22.3266 14.6296 22.7672 14.0249 22.7812C14.0155 22.7812 14.0109 22.7812 14.0062 22.7812ZM10.2046 21.2812H13.7952L14.0812 19.2516C14.1515 18.7594 14.4609 18.3328 14.9109 18.1125C15.2296 17.9578 15.5343 17.7797 15.8249 17.5828C16.2374 17.2969 16.7671 17.2359 17.2405 17.4234L19.1437 18.1875L20.9343 15.0891L18.9843 13.5656C18.7734 13.4016 18.6655 13.1344 18.703 12.8719C18.7452 12.5859 18.764 12.2906 18.7687 12C18.7687 11.8453 18.7593 11.6766 18.7452 11.4797C18.6984 10.9734 18.914 10.4812 19.3124 10.1672L20.9296 8.89688L19.139 5.79844L17.2359 6.5625C16.7671 6.75 16.2374 6.69375 15.8202 6.40313C15.5343 6.20156 15.2296 6.02344 14.9155 5.87344C14.4655 5.65781 14.1515 5.23125 14.0765 4.73438L13.7952 2.71875H10.2046L9.91867 4.74844C9.84836 5.24063 9.53898 5.66719 9.08898 5.8875C8.77023 6.04219 8.46555 6.22031 8.17492 6.41719C7.76242 6.70312 7.23273 6.76406 6.7593 6.57656L4.86555 5.8125L3.07492 8.91094L4.68273 10.1766C5.08117 10.4906 5.29211 10.9781 5.24992 11.4844C5.23117 11.6672 5.22648 11.8359 5.22648 12C5.22648 12.1594 5.23586 12.3281 5.24992 12.5203C5.2968 13.0266 5.08586 13.5188 4.68742 13.8328L3.07023 15.1031L4.86086 18.2016L6.7593 17.4375C7.22805 17.25 7.75773 17.3062 8.17492 17.5969C8.46086 17.7984 8.76555 17.9766 9.07961 18.1266C9.52961 18.3422 9.84367 18.7687 9.91867 19.2656L10.2046 21.2812ZM12.0046 15.75C11.8827 15.75 11.7562 15.7453 11.6343 15.7313C10.6359 15.6328 9.74055 15.15 9.10305 14.3766C8.46555 13.6031 8.17023 12.6281 8.26867 11.6297C8.47023 9.57188 10.3124 8.0625 12.3702 8.26406C14.1421 8.44219 15.553 9.85781 15.7312 11.625C15.7546 11.8687 15.7546 12.1172 15.7312 12.3656C15.539 14.3016 13.9077 15.75 12.0046 15.75ZM11.9952 9.75C11.4749 9.75 10.978 9.92812 10.5702 10.2609C10.1062 10.6406 9.81555 11.1797 9.7593 11.7797C9.69836 12.3797 9.87648 12.9609 10.2609 13.4297C10.6405 13.8938 11.1796 14.1844 11.7796 14.2406C13.0124 14.3625 14.1187 13.4578 14.2405 12.2203C14.2546 12.075 14.2546 11.925 14.2405 11.7797C14.1327 10.7156 13.2843 9.86719 12.2202 9.75937C12.1452 9.75469 12.0702 9.75 11.9952 9.75Z" fill="#656565"/>
</svg>
